<svg id="Layer_1" data-name="Layer 1" xmlns="http://www.w3.org/2000/svg" xmlns:xlink="http://www.w3.org/1999/xlink" viewBox="0 0 657.59 300.36"><defs><style>.cls-1,.cls-14,.cls-17{font-size:15.59px;}.cls-1,.cls-11,.cls-17{font-family:OpusStd, Opus Std;}.cls-10,.cls-12,.cls-2,.cls-3,.cls-5,.cls-8{fill:none;}.cls-10,.cls-12,.cls-16,.cls-2,.cls-3,.cls-5,.cls-8{stroke:#000;}.cls-16,.cls-2{stroke-miterlimit:10;}.cls-10,.cls-12,.cls-18,.cls-3,.cls-5,.cls-8{stroke-linejoin:bevel;}.cls-3{stroke-width:0.61px;}.cls-4{font-size:66.5px;}.cls-14,.cls-4{font-family:OpusSpecialStd, Opus Special Std;}.cls-5{stroke-width:0.49px;}.cls-6,.cls-7{font-size:9.38px;}.cls-6{font-family:PlantinMTStd-Italic, Plantin MT Std;font-style:italic;}.cls-7{font-family:OpusTextStd, Opus Text Std;}.cls-8{stroke-width:0.24px;}.cls-9{fill-rule:evenodd;}.cls-10{stroke-width:0.12px;}.cls-11{font-size:15.71px;}.cls-12{stroke-width:0.37px;}.cls-13{font-size:17.3px;}.cls-13,.cls-15,.cls-19,.cls-20{font-family:PlantinMTStd-Regular, Plantin MT Std;}.cls-15{font-size:11px;}.cls-16{fill:#c33;stroke-width:0.25px;}.cls-17,.cls-18{opacity:0.8;fill:#b5b5b5;}.cls-18{stroke:#b5b5b5;stroke-width:0.61px;}.cls-19{font-size:14px;}.cls-20{font-size:9px;}.cls-21{fill:#c1c1c1;}.cls-22{fill:url(#linear-gradient);}</style><linearGradient id="linear-gradient" x1="397.17" y1="45.1" x2="397.17" y2="440.07" gradientUnits="userSpaceOnUse"><stop offset="0.34" stop-color="#fff"/><stop offset="0.36" stop-color="#fbfbfb"/><stop offset="0.39" stop-color="#f0f0f0"/><stop offset="0.41" stop-color="#dedede"/><stop offset="0.43" stop-color="#c4c4c4"/><stop offset="0.46" stop-color="#a2a2a2"/><stop offset="0.48" stop-color="#797979"/><stop offset="0.5" stop-color="#484848"/><stop offset="0.52" stop-color="#101010"/><stop offset="0.53"/></linearGradient></defs><title>MazurkaNo10</title><text class="cls-1" transform="translate(333.18 140.71)">*</text><text class="cls-1" transform="translate(477.14 141.08)">°</text><text class="cls-1" transform="translate(539.5 140.71)">*</text><line class="cls-2" x1="351.8" y1="137.21" x2="200.34" y2="186.37"/><line class="cls-2" x1="374.6" y1="137.17" x2="243.74" y2="186.75"/><line class="cls-2" x1="389.75" y1="137.24" x2="287.8" y2="186.75"/><line class="cls-2" x1="408.22" y1="137.17" x2="331.86" y2="186.75"/><line class="cls-2" x1="425.24" y1="137.21" x2="375.92" y2="186.75"/><line class="cls-2" x1="442.22" y1="137.17" x2="419.98" y2="186.75"/><line class="cls-2" x1="468.22" y1="137.31" x2="464.03" y2="186.75"/><line class="cls-2" x1="492.99" y1="137.31" x2="506.54" y2="186.75"/><line class="cls-2" x1="517.45" y1="137.12" x2="550.6" y2="186.75"/><line class="cls-2" x1="533.78" y1="137.21" x2="594.66" y2="186.75"/><line class="cls-3" x1="48.19" y1="53.75" x2="48.19" y2="120.25"/><text class="cls-4" transform="translate(41.13 120.25) scale(0.8 1)">{</text><line class="cls-3" x1="157.32" y1="53.75" x2="157.32" y2="120.25"/><line class="cls-3" x1="248.17" y1="53.75" x2="248.17" y2="120.25"/><line class="cls-3" x1="357.3" y1="53.75" x2="357.3" y2="120.25"/><line class="cls-3" x1="472.64" y1="53.75" x2="472.64" y2="120.25"/><line class="cls-3" x1="566.56" y1="53.75" x2="566.56" y2="120.25"/><line class="cls-5" x1="115.67" y1="88.58" x2="154.15" y2="86.15"/><line class="cls-5" x1="115.67" y1="83.71" x2="154.15" y2="86.15"/><text class="cls-6" transform="translate(161.09 88.46)">c</text><text class="cls-6" transform="translate(164.7 88.46)">r</text><text class="cls-6" transform="translate(167.93 88.46)">e</text><text class="cls-6" transform="translate(171.54 88.46)">s</text><text class="cls-6" transform="translate(174.66 88.46)">c</text><text class="cls-6" transform="translate(178.46 88.46)">.</text><text class="cls-7" transform="translate(297.99 88.34)">s</text><text class="cls-7" transform="translate(301.81 88.34)">f</text><line class="cls-5" x1="285.93" y1="86.63" x2="296.77" y2="89.19"/><line class="cls-5" x1="285.93" y1="86.63" x2="296.77" y2="84.2"/><text class="cls-7" transform="translate(361.32 88.34)">f</text><text class="cls-7" transform="translate(365.46 88.34)">f</text><path class="cls-8" d="M331.63,96.07c4.51,6.33,51.64,6.33,56.15,0" transform="translate(-25.12 -29.65)"/><path class="cls-9" d="M331.63,96.07c4.51,5.72,51.64,5.72,56.15,0C383.27,103,336.14,103,331.63,96.07Z" transform="translate(-25.12 -29.65)"/><path class="cls-10" d="M331.63,96.07c4.51,5.72,51.64,5.72,56.15,0C383.27,103,336.14,103,331.63,96.07Z" transform="translate(-25.12 -29.65)"/><path class="cls-8" d="M331.63,85.35c4.51-6.33,51.64-6.33,56.15,0" transform="translate(-25.12 -29.65)"/><path class="cls-9" d="M331.63,85.35c4.51-6.94,51.64-6.94,56.15,0C383.27,79.63,336.14,79.63,331.63,85.35Z" transform="translate(-25.12 -29.65)"/><path class="cls-10" d="M331.63,85.35c4.51-6.94,51.64-6.94,56.15,0C383.27,79.63,336.14,79.63,331.63,85.35Z" transform="translate(-25.12 -29.65)"/><text class="cls-6" transform="translate(377.88 88.46)">p</text><text class="cls-6" transform="translate(382.48 88.46)">o</text><text class="cls-6" transform="translate(386.68 88.46)">c</text><text class="cls-6" transform="translate(390.29 88.46)">o</text><text class="cls-6" transform="translate(394.49 88.46)"> </text><text class="cls-6" transform="translate(397.09 88.46)">r</text><text class="cls-6" transform="translate(400.69 88.46)">i</text><text class="cls-6" transform="translate(403.23 88.46)">t</text><text class="cls-6" transform="translate(405.97 88.46)">.</text><text class="cls-1" transform="translate(76.08 141.08)">°</text><text class="cls-1" transform="translate(133.2 140.71)">*</text><text class="cls-1" transform="translate(161.82 141.08)">°</text><text class="cls-1" transform="translate(201.89 140.71)">*</text><text class="cls-1" transform="translate(252.68 141.08)">°</text><text class="cls-11" transform="translate(65.58 57.47)">3</text><text class="cls-11" transform="translate(65.37 65.37)">4</text><text class="cls-11" transform="translate(65.58 108.38)">3</text><text class="cls-11" transform="translate(65.37 116.28)">4</text><line class="cls-12" x1="47.95" y1="69.34" x2="566.41" y2="69.34"/><line class="cls-12" x1="47.95" y1="65.44" x2="566.41" y2="65.44"/><line class="cls-12" x1="47.95" y1="61.54" x2="566.41" y2="61.54"/><line class="cls-12" x1="47.95" y1="57.65" x2="566.41" y2="57.65"/><line class="cls-12" x1="47.95" y1="53.75" x2="566.41" y2="53.75"/><text class="cls-1" transform="translate(50.87 65.44)">&amp;</text><text class="cls-1" transform="translate(77.18 46.68)">Ÿ</text><polygon class="cls-9" points="82.9 49.85 99.71 50.83 99.71 48.88 82.9 47.9 82.9 49.85"/><path class="cls-8" d="M106.07,103.74c7.31,8.53,48.11,7.8,55.54-1.09" transform="translate(-25.12 -29.65)"/><path class="cls-9" d="M106.07,103.74c7.31,7.92,48.11,7.19,55.54-1.09C154.18,112.15,113.38,112.88,106.07,103.74Z" transform="translate(-25.12 -29.65)"/><path class="cls-10" d="M106.07,103.74c7.31,7.92,48.11,7.19,55.54-1.09C154.18,112.15,113.38,112.88,106.07,103.74Z" transform="translate(-25.12 -29.65)"/><text class="cls-1" transform="translate(162.92 48.63)">Ÿ</text><rect x="203.36" y="48.88" width="33.61" height="1.95"/><polygon class="cls-9" points="284.23 54.36 289.1 53.75 289.1 51.8 284.23 52.41 284.23 54.36"/><polygon class="cls-9" points="259.5 54.72 289.1 50.83 289.1 48.88 259.5 52.77 259.5 54.72"/><text class="cls-1" transform="translate(380.2 50.83)">Ÿ</text><rect x="455.34" y="75.19" width="4.87" height="1.95"/><rect x="363.51" y="78.11" width="96.7" height="1.95"/><text class="cls-1" transform="translate(480.43 52.04)">.</text><polygon class="cls-9" points="503.57 74.33 508.44 74.21 508.44 72.26 503.57 72.38 503.57 74.33"/><polygon class="cls-9" points="478.85 78.11 508.44 77.13 508.44 75.19 478.85 76.16 478.85 78.11"/><path class="cls-8" d="M226.53,102.52c5.23,5.24,27.52,4.15,32.39-1.58" transform="translate(-25.12 -29.65)"/><path class="cls-9" d="M226.53,102.52c5.23,4.63,27.52,3.54,32.39-1.58C254.05,107.27,231.76,108.37,226.53,102.52Z" transform="translate(-25.12 -29.65)"/><path class="cls-10" d="M226.53,102.52c5.23,4.63,27.52,3.54,32.39-1.58C254.05,107.27,231.76,108.37,226.53,102.52Z" transform="translate(-25.12 -29.65)"/><path class="cls-8" d="M391.8,81.45c9.86-19.48,85.49-19.48,95.48,0" transform="translate(-25.12 -29.65)"/><path class="cls-9" d="M391.8,81.45c9.86-20.09,85.49-20.09,95.48,0C477.29,62.57,401.66,62.57,391.8,81.45Z" transform="translate(-25.12 -29.65)"/><path class="cls-10" d="M391.8,81.45c9.86-20.09,85.49-20.09,95.48,0C477.29,62.57,401.66,62.57,391.8,81.45Z" transform="translate(-25.12 -29.65)"/><text class="cls-13" transform="translate(60.55 20.74)"> </text><line class="cls-12" x1="47.95" y1="120.25" x2="566.41" y2="120.25"/><line class="cls-12" x1="47.95" y1="116.35" x2="566.41" y2="116.35"/><line class="cls-12" x1="47.95" y1="112.46" x2="566.41" y2="112.46"/><line class="cls-12" x1="47.95" y1="108.56" x2="566.41" y2="108.56"/><line class="cls-12" x1="47.95" y1="104.66" x2="566.41" y2="104.66"/><text class="cls-1" transform="translate(50.87 108.56)">?</text><text class="cls-1" transform="translate(520.62 90.78)">&gt;</text><line class="cls-12" x1="82.9" y1="68.73" x2="82.9" y2="48.02"/><text class="cls-1" transform="translate(77.67 69.34)">œ</text><text class="cls-1" transform="translate(77.67 59.6)">œ</text><line class="cls-12" x1="99.71" y1="70.68" x2="99.71" y2="49"/><text class="cls-1" transform="translate(94.47 71.29)">œ</text><text class="cls-1" transform="translate(94.47 61.54)">œ</text><text class="cls-1" transform="translate(89.48 71.29)">#</text><line class="cls-12" x1="116.4" y1="66.78" x2="116.4" y2="45.95"/><text class="cls-1" transform="translate(111.16 67.39)">œ</text><text class="cls-1" transform="translate(111.16 57.65)">œ</text><text class="cls-1" transform="translate(107.26 57.65)">n</text><line class="cls-12" x1="139.66" y1="68.73" x2="139.66" y2="46.93"/><text class="cls-1" transform="translate(134.42 69.34)">œ</text><text class="cls-1" transform="translate(134.42 59.6)">œ</text><line class="cls-12" x1="168.65" y1="66.78" x2="168.65" y2="49.85"/><text class="cls-1" transform="translate(163.41 67.39)">œ</text><text class="cls-1" transform="translate(163.41 63.49)">œ</text><text class="cls-14" transform="translate(171.32 67.39)">™</text><text class="cls-14" transform="translate(171.32 63.49)">™</text><line class="cls-12" x1="203.36" y1="68.73" x2="203.36" y2="49"/><text class="cls-1" transform="translate(198.12 69.34)">œ</text><text class="cls-1" transform="translate(198.12 65.44)">œ</text><text class="cls-1" transform="translate(193.13 65.44)">#</text><line class="cls-12" x1="220.16" y1="64.83" x2="220.16" y2="49"/><text class="cls-1" transform="translate(214.93 65.44)">œ</text><text class="cls-1" transform="translate(214.93 61.54)">œ</text><text class="cls-1" transform="translate(211.03 65.44)">n</text><line class="cls-12" x1="236.97" y1="66.78" x2="236.97" y2="49"/><text class="cls-1" transform="translate(231.73 67.39)">œ</text><text class="cls-1" transform="translate(231.73 63.49)">œ</text><line class="cls-12" x1="259.5" y1="68.73" x2="259.5" y2="52.9"/><text class="cls-1" transform="translate(254.26 69.34)">œ</text><text class="cls-1" transform="translate(254.26 65.44)">œ</text><text class="cls-1" transform="translate(271.07 61.54)">≈</text><line class="cls-12" x1="289.1" y1="68.73" x2="289.1" y2="49"/><text class="cls-1" transform="translate(283.86 69.34)">œ</text><text class="cls-1" transform="translate(283.86 59.6)">œ</text><line class="cls-12" x1="300.42" y1="56.31" x2="300.42" y2="77.13"/><text class="cls-1" transform="translate(300.3 55.7)">˙</text><text class="cls-1" transform="translate(300.3 65.44)">˙</text><line class="cls-12" x1="363.51" y1="56.31" x2="363.51" y2="79.94"/><text class="cls-1" transform="translate(363.39 55.7)">œ</text><text class="cls-1" transform="translate(363.39 65.44)">œ</text><line class="cls-12" x1="380.32" y1="58.26" x2="380.32" y2="79.94"/><text class="cls-1" transform="translate(380.2 57.65)">œ</text><text class="cls-1" transform="translate(380.2 67.39)">œ</text><line class="cls-12" x1="397" y1="60.2" x2="397" y2="79.94"/><text class="cls-1" transform="translate(396.88 59.6)">œ</text><text class="cls-1" transform="translate(396.88 69.34)">œ</text><text class="cls-1" transform="translate(391.89 59.6)">#</text><line class="cls-12" x1="413.81" y1="58.26" x2="413.81" y2="79.94"/><text class="cls-1" transform="translate(413.69 57.65)">œ</text><text class="cls-1" transform="translate(413.69 67.39)">œ</text><line class="cls-12" x1="430.62" y1="54.36" x2="430.62" y2="79.94"/><text class="cls-1" transform="translate(430.5 53.75)">œ</text><text class="cls-1" transform="translate(430.5 63.49)">œ</text><text class="cls-1" transform="translate(447.18 61.54)">≈</text><line class="cls-12" x1="460.21" y1="56.31" x2="460.21" y2="79.94"/><text class="cls-1" transform="translate(460.09 55.7)">œ</text><text class="cls-1" transform="translate(460.09 65.44)">œ</text><line class="cls-12" x1="478.85" y1="58.26" x2="478.85" y2="77.99"/><text class="cls-1" transform="translate(478.72 57.65)">œ</text><text class="cls-1" transform="translate(478.72 67.39)">œ</text><text class="cls-1" transform="translate(495.41 61.54)">≈</text><line class="cls-12" x1="508.44" y1="56.31" x2="508.44" y2="77.01"/><text class="cls-1" transform="translate(508.32 55.7)">œ</text><text class="cls-1" transform="translate(508.32 65.44)">œ</text><line class="cls-12" x1="526.47" y1="68.73" x2="526.47" y2="46.93"/><text class="cls-1" transform="translate(521.11 69.34)">˙</text><text class="cls-1" transform="translate(521.11 59.6)">˙</text><line class="cls-12" x1="77.79" y1="115.01" x2="77.79" y2="127.07"/><text class="cls-1" transform="translate(77.67 114.41)">˙</text><text class="cls-14" transform="translate(85.71 114.41)">™</text><text class="cls-1" transform="translate(77.67 104.66)">Œ</text><line class="cls-3" x1="109.7" y1="100.76" x2="117.98" y2="100.76"/><line class="cls-12" x1="116.4" y1="109.9" x2="116.4" y2="90.05"/><text class="cls-1" transform="translate(111.16 110.51)">œ</text><text class="cls-1" transform="translate(111.16 106.61)">œ</text><text class="cls-1" transform="translate(111.16 100.76)">œ</text><line class="cls-3" x1="132.96" y1="100.76" x2="141.24" y2="100.76"/><line class="cls-12" x1="139.66" y1="109.9" x2="139.66" y2="90.05"/><text class="cls-1" transform="translate(134.42 110.51)">œ</text><text class="cls-1" transform="translate(134.42 106.61)">œ</text><text class="cls-1" transform="translate(134.42 100.76)">œ</text><line class="cls-12" x1="168.65" y1="121.59" x2="168.65" y2="108.56"/><text class="cls-1" transform="translate(163.41 122.2)">œ</text><line class="cls-3" x1="185.09" y1="100.76" x2="193.37" y2="100.76"/><line class="cls-12" x1="186.67" y1="101.37" x2="186.67" y2="122.2"/><text class="cls-1" transform="translate(186.55 100.76)">œ</text><text class="cls-1" transform="translate(186.55 104.66)">œ</text><text class="cls-1" transform="translate(186.55 108.56)">œ</text><text class="cls-1" transform="translate(214.93 112.46)">Œ</text><line class="cls-12" x1="259.5" y1="119.64" x2="259.5" y2="106.61"/><text class="cls-1" transform="translate(254.26 120.25)">œ</text><line class="cls-3" x1="298.84" y1="100.76" x2="307.12" y2="100.76"/><line class="cls-12" x1="300.42" y1="101.37" x2="300.42" y2="124.15"/><text class="cls-1" transform="translate(300.3 100.76)">œ</text><text class="cls-1" transform="translate(300.3 110.51)">œ</text><line class="cls-3" x1="332.94" y1="100.76" x2="341.22" y2="100.76"/><line class="cls-12" x1="334.52" y1="101.37" x2="334.52" y2="124.15"/><text class="cls-1" transform="translate(334.4 100.76)">œ</text><text class="cls-1" transform="translate(334.4 110.51)">œ</text><line class="cls-12" x1="368.63" y1="119.64" x2="368.63" y2="106.61"/><text class="cls-1" transform="translate(363.39 120.25)">œ</text><line class="cls-12" x1="397" y1="103.32" x2="397" y2="126.1"/><text class="cls-1" transform="translate(396.88 102.71)">œ</text><text class="cls-1" transform="translate(396.88 106.61)">œ</text><text class="cls-1" transform="translate(396.88 112.46)">œ</text><line class="cls-12" x1="430.62" y1="103.32" x2="430.62" y2="126.1"/><text class="cls-1" transform="translate(430.5 102.71)">œ</text><text class="cls-1" transform="translate(430.5 106.61)">œ</text><text class="cls-1" transform="translate(430.5 112.46)">œ</text><line class="cls-3" x1="477.26" y1="124.15" x2="485.55" y2="124.15"/><line class="cls-3" x1="477.26" y1="128.05" x2="485.55" y2="128.05"/><line class="cls-12" x1="483.96" y1="127.44" x2="483.96" y2="100.76"/><text class="cls-1" transform="translate(478.72 128.05)">œ</text><text class="cls-1" transform="translate(478.72 114.41)">œ</text><line class="cls-3" x1="519.65" y1="100.76" x2="528.05" y2="100.76"/><line class="cls-12" x1="521.23" y1="101.37" x2="521.23" y2="127.07"/><text class="cls-1" transform="translate(521.11 100.76)">˙</text><text class="cls-1" transform="translate(521.11 106.61)">˙</text><text class="cls-1" transform="translate(521.11 114.41)">˙</text><text class="cls-13" transform="translate(65.37 14.55)">Op. 67, No. 3</text><text class="cls-15" transform="translate(76.08 36.73)">m. 28</text><rect class="cls-16" x="373.95" y="29.2" width="1.31" height="108.4"/><rect class="cls-16" x="389" y="29.2" width="1.31" height="108.4"/><rect class="cls-16" x="407.56" y="29.2" width="1.31" height="108.4"/><rect class="cls-16" x="424.56" y="29.2" width="1.31" height="108.4"/><rect class="cls-16" x="441.56" y="29.2" width="1.31" height="108.4"/><rect class="cls-16" x="467.56" y="29.2" width="1.31" height="108.4"/><rect class="cls-16" x="492.33" y="29.2" width="1.31" height="108.4"/><rect class="cls-16" x="516.8" y="29.2" width="1.31" height="108.4"/><rect class="cls-16" x="533.12" y="29.2" width="1.31" height="108.4"/><text class="cls-17" transform="translate(413.81 103.02)">œ</text><text class="cls-17" transform="translate(413.81 106.91)">œ</text><text class="cls-17" transform="translate(413.81 112.76)">œ</text><text class="cls-17" transform="translate(451.57 102.41)">œ</text><text class="cls-17" transform="translate(451.57 106.31)">œ</text><text class="cls-17" transform="translate(451.57 112.15)">œ</text><text class="cls-17" transform="translate(379.94 120.11)">œ</text><line class="cls-18" x1="501.08" y1="124.08" x2="509.36" y2="124.08"/><line class="cls-18" x1="501.08" y1="127.98" x2="509.36" y2="127.98"/><text class="cls-17" transform="translate(502.54 127.98)">œ</text><text class="cls-17" transform="translate(502.54 114.34)">œ</text><rect class="cls-16" x="351.14" y="29.2" width="1.31" height="108.4"/><text class="cls-19" transform="translate(418.62 20.74)">cadence</text><rect class="cls-16" x="467.38" y="-31.64" width="1.68" height="182.67" transform="translate(383.41 498.26) rotate(-90)"/><rect class="cls-2" x="199.69" y="186.75" width="264.35" height="24.03"/><path class="cls-2" d="M489.15,234.33" transform="translate(-25.12 -29.65)"/><path class="cls-2" d="M224.8,234.33" transform="translate(-25.12 -29.65)"/><line class="cls-2" x1="419.98" y1="186.75" x2="419.98" y2="210.78"/><line class="cls-2" x1="375.92" y1="186.75" x2="375.92" y2="210.78"/><line class="cls-2" x1="331.86" y1="186.75" x2="331.86" y2="210.78"/><line class="cls-2" x1="287.8" y1="186.75" x2="287.8" y2="210.78"/><line class="cls-2" x1="243.74" y1="186.75" x2="243.74" y2="210.78"/><polyline class="cls-2" points="464.13 186.75 594.66 186.75 594.66 210.78 464.03 210.78"/><line class="cls-2" x1="594.66" y1="186.75" x2="594.66" y2="210.78"/><line class="cls-2" x1="550.6" y1="186.75" x2="550.6" y2="210.78"/><line class="cls-2" x1="506.54" y1="186.75" x2="506.54" y2="210.78"/><text class="cls-20" transform="translate(207.92 195.65)">[31, 1]<tspan x="2.48" y="10.8">[3, 5]</tspan></text><text class="cls-20" transform="translate(247.72 195.65)">[31, 1.5]<tspan x="6.28" y="10.8">[2, 5]</tspan></text><text class="cls-20" transform="translate(295.07 195.65)">[31, 2]<tspan x="-0.52" y="10.8">[#1, 2]</tspan></text><text class="cls-20" transform="translate(336.59 195.65)">[31, 2.5]<tspan x="6.28" y="10.8">[2, 2]</tspan></text><text class="cls-20" transform="translate(384.37 195.65)">[31, 3]<tspan x="2.48" y="10.8">[4, 2]</tspan></text><text class="cls-20" transform="translate(422.32 195.65)">[31, 3.75]<tspan x="8.77" y="10.8">[3, 2]</tspan></text><text class="cls-20" transform="translate(471.65 195.65)">[32, 1]<tspan x="2.48" y="10.8">[2, 1]</tspan></text><text class="cls-20" transform="translate(509.21 195.65)">[32, 1.75]<tspan x="8.77" y="10.8">[3, 1]</tspan></text><text class="cls-20" transform="translate(559.17 195.65)">[32, 2]<tspan x="2.48" y="10.8">[1, 1]</tspan></text><text class="cls-20" transform="translate(118.54 195.65)">[measure, beat]<tspan x="-14.65" y="10.8">[melodic SD, bass SD]</tspan></text><rect class="cls-21" x="613.03" y="251.72" width="44.06" height="24.03"/><rect class="cls-21" x="568.98" y="251.72" width="44.05" height="24.03"/><polygon class="cls-21" points="568.98 251.72 568.98 275.75 526.47 275.75 526.1 275.75 526.1 251.72 526.56 251.72 568.98 251.72"/><rect class="cls-21" x="482.04" y="251.72" width="44.06" height="24.03"/><rect class="cls-21" x="437.98" y="251.72" width="44.06" height="24.03"/><polygon class="cls-21" points="437.98 251.72 437.98 275.75 395.47 275.75 395.47 251.72 395.57 251.72 437.98 251.72"/><rect class="cls-21" x="351.42" y="251.72" width="44.05" height="24.03"/><rect class="cls-21" x="307.36" y="251.72" width="44.06" height="24.03"/><polygon class="cls-21" points="307.36 251.72 307.36 275.75 264.85 275.75 264.85 251.72 264.94 251.72 307.36 251.72"/><rect class="cls-21" x="220.79" y="251.72" width="44.06" height="24.03"/><rect class="cls-21" x="176.73" y="251.72" width="44.06" height="24.03"/><rect class="cls-21" x="132.67" y="251.72" width="44.06" height="24.03"/><rect class="cls-21" x="88.62" y="251.72" width="44.05" height="24.03"/><rect class="cls-21" x="44.56" y="251.72" width="44.06" height="24.03"/><rect class="cls-21" x="0.5" y="251.72" width="44.06" height="24.03"/><polygon class="cls-2" points="44.56 275.75 0.5 275.75 0.5 251.72 44.56 251.72 88.62 251.72 132.67 251.72 176.73 251.72 220.79 251.72 264.85 251.72 264.85 275.75 220.79 275.75 176.73 275.75 132.67 275.75 88.62 275.75 44.56 275.75"/><line class="cls-2" x1="220.79" y1="251.72" x2="220.79" y2="275.75"/><line class="cls-2" x1="176.73" y1="251.72" x2="176.73" y2="275.75"/><line class="cls-2" x1="132.67" y1="251.72" x2="132.67" y2="275.75"/><line class="cls-2" x1="88.62" y1="251.72" x2="88.62" y2="275.75"/><line class="cls-2" x1="44.56" y1="251.72" x2="44.56" y2="275.75"/><polyline class="cls-2" points="395.47 275.75 351.42 275.75 307.36 275.75 264.85 275.75"/><polyline class="cls-2" points="264.94 251.72 307.36 251.72 351.42 251.72 395.47 251.72"/><line class="cls-2" x1="395.47" y1="251.72" x2="395.47" y2="275.75"/><line class="cls-2" x1="351.42" y1="251.72" x2="351.42" y2="275.75"/><line class="cls-2" x1="307.36" y1="251.72" x2="307.36" y2="275.75"/><polyline class="cls-2" points="526.1 275.75 482.04 275.75 437.98 275.75 395.47 275.75"/><polyline class="cls-2" points="395.57 251.72 437.98 251.72 482.04 251.72 526.1 251.72"/><line class="cls-2" x1="526.1" y1="251.72" x2="526.1" y2="275.75"/><line class="cls-2" x1="482.04" y1="251.72" x2="482.04" y2="275.75"/><line class="cls-2" x1="437.98" y1="251.72" x2="437.98" y2="275.75"/><polyline class="cls-2" points="657.09 275.75 613.03 275.75 568.98 275.75 526.47 275.75"/><polyline class="cls-2" points="526.56 251.72 568.98 251.72 613.03 251.72 657.09 251.72"/><line class="cls-2" x1="657.09" y1="251.72" x2="657.09" y2="275.75"/><line class="cls-2" x1="613.03" y1="251.72" x2="613.03" y2="275.75"/><line class="cls-2" x1="568.98" y1="251.72" x2="568.98" y2="275.75"/><text class="cls-20" transform="translate(13.56 266.28)">year</text><text class="cls-20" transform="translate(58.61 266.28)">opus</text><text class="cls-20" transform="translate(95.66 266.28)">number</text><text class="cls-20" transform="translate(149.88 266.28)">key</text><text class="cls-20" transform="translate(189 266.28)">meter</text><text class="cls-20" transform="translate(234.87 266.28)">form</text><text class="cls-20" transform="translate(277.58 266.28)">mm.</text><text class="cls-20" transform="translate(322.91 266.28)">freq.</text><text class="cls-20" transform="translate(361.59 260.88)">global<tspan x="-1.93" y="10.8">section</tspan></text><text class="cls-20" transform="translate(408.97 260.88)">local<tspan x="-4.59" y="10.8">section</tspan></text><text class="cls-20" transform="translate(444.24 260.88)">cadence<tspan x="7.47" y="10.8">type</tspan></text><text class="cls-20" transform="translate(492.47 260.88)">roman<tspan x="-3.47" y="10.8">numeral</tspan></text><text class="cls-20" transform="translate(540.76 266.28)">cpt.</text><text class="cls-20" transform="translate(576.03 266.28)">paroxy.</text><text class="cls-20" transform="translate(620.14 266.28)">descend</text><polygon class="cls-22" points="568.98 251.72 526.1 251.72 199.69 210.78 594.66 210.78 568.98 251.72"/><polyline class="cls-2" points="264.85 275.83 264.85 299.86 0.5 299.86 0.5 275.83"/><path class="cls-2" d="M290,323.41" transform="translate(-25.12 -29.65)"/><path class="cls-2" d="M25.62,323.41" transform="translate(-25.12 -29.65)"/><line class="cls-2" x1="220.79" y1="275.84" x2="220.79" y2="299.86"/><line class="cls-2" x1="176.73" y1="275.84" x2="176.73" y2="299.86"/><line class="cls-2" x1="132.67" y1="275.84" x2="132.67" y2="299.86"/><line class="cls-2" x1="88.62" y1="275.84" x2="88.62" y2="299.86"/><line class="cls-2" x1="44.56" y1="275.84" x2="44.56" y2="299.86"/><line class="cls-2" x1="395.47" y1="299.86" x2="264.85" y2="299.86"/><path class="cls-2" d="M290.06,305.49" transform="translate(-25.12 -29.65)"/><line class="cls-2" x1="395.47" y1="275.84" x2="395.47" y2="299.86"/><line class="cls-2" x1="351.42" y1="275.84" x2="351.42" y2="299.86"/><line class="cls-2" x1="307.36" y1="275.84" x2="307.36" y2="299.86"/><line class="cls-2" x1="526.1" y1="299.86" x2="395.47" y2="299.86"/><path class="cls-2" d="M420.69,305.49" transform="translate(-25.12 -29.65)"/><line class="cls-2" x1="526.1" y1="275.84" x2="526.1" y2="299.86"/><line class="cls-2" x1="482.04" y1="275.84" x2="482.04" y2="299.86"/><line class="cls-2" x1="437.98" y1="275.84" x2="437.98" y2="299.86"/><polyline class="cls-2" points="657.09 275.83 657.09 299.86 526.47 299.86"/><line class="cls-2" x1="657.09" y1="275.84" x2="657.09" y2="299.86"/><line class="cls-2" x1="613.03" y1="275.84" x2="613.03" y2="299.86"/><line class="cls-2" x1="568.98" y1="275.84" x2="568.98" y2="299.86"/><text class="cls-20" transform="translate(11.73 291.32)">1835</text><text class="cls-20" transform="translate(61.96 291.32)">67</text><text class="cls-20" transform="translate(107.54 291.32)">3</text><text class="cls-20" transform="translate(148.38 291.32)">CM</text><text class="cls-20" transform="translate(193.08 291.32)">3/4</text><text class="cls-20" transform="translate(236.96 291.32)">RB</text><text class="cls-20" transform="translate(280.71 291.32)">32</text><text class="cls-20" transform="translate(328.46 291.32)">3</text><text class="cls-20" transform="translate(370.17 291.32)">A</text><text class="cls-20" transform="translate(411.63 291.32)">n/a</text><text class="cls-20" transform="translate(451.18 291.32)">PAC</text><text class="cls-20" transform="translate(495.1 291.32)">V, I</text><text class="cls-20" transform="translate(544.26 291.32)">...</text><text class="cls-20" transform="translate(587.32 291.32)">Y</text><text class="cls-20" transform="translate(632.75 291.32)">Y</text></svg>