<svg id="Layer_1" data-name="Layer 1" xmlns="http://www.w3.org/2000/svg" viewBox="0 0 525.74 169.58"><defs><style>.cls-1,.cls-10,.cls-14,.cls-18,.cls-19,.cls-21,.cls-22,.cls-25,.cls-26,.cls-3,.cls-4,.cls-8{fill:none;}.cls-1,.cls-10,.cls-14,.cls-18,.cls-19,.cls-21,.cls-25,.cls-3,.cls-4,.cls-8{stroke:#000;}.cls-1,.cls-10,.cls-14,.cls-18,.cls-19,.cls-21,.cls-3,.cls-4,.cls-8{stroke-linejoin:bevel;}.cls-1,.cls-3{stroke-width:0.61px;}.cls-1,.cls-10,.cls-12,.cls-13,.cls-14,.cls-15,.cls-2,.cls-20,.cls-4,.cls-5,.cls-6,.cls-8,.cls-9{opacity:0.3;}.cls-2{font-size:66.5px;}.cls-2,.cls-20{font-family:OpusSpecialStd, Opus Special Std;}.cls-4{stroke-width:0.49px;}.cls-11,.cls-5,.cls-6,.cls-7{font-size:9.38px;}.cls-11,.cls-5{font-family:PlantinMTStd-Italic, Plantin MT Std;font-style:italic;}.cls-6,.cls-7{font-family:OpusTextStd, Opus Text Std;}.cls-18,.cls-8{stroke-width:0.24px;}.cls-17,.cls-9{fill-rule:evenodd;}.cls-10,.cls-19{stroke-width:0.12px;}.cls-12,.cls-16,.cls-20{font-size:15.59px;}.cls-12,.cls-13,.cls-16{font-family:OpusStd, Opus Std;}.cls-13{font-size:15.71px;}.cls-14,.cls-21{stroke-width:0.37px;}.cls-22,.cls-26{stroke:#231f20;}.cls-22,.cls-25,.cls-26{stroke-miterlimit:10;}.cls-22{stroke-width:2px;}.cls-23{font-size:17.4px;font-family:MyriadPro-Regular, Myriad Pro;}.cls-23,.cls-27{fill:#231f20;}.cls-24{font-size:14px;}.cls-24,.cls-28{font-family:PlantinMTStd-Regular, Plantin MT Std;}.cls-28{font-size:8px;}</style></defs><title>SampleParoxy</title><line class="cls-1" x1="7.06" y1="38.97" x2="7.06" y2="105.47"/><text class="cls-2" transform="translate(0 105.47) scale(0.8 1)">{</text><line class="cls-1" x1="116.19" y1="38.97" x2="116.19" y2="105.47"/><line class="cls-1" x1="207.04" y1="38.97" x2="207.04" y2="105.47"/><line class="cls-3" x1="316.17" y1="38.97" x2="316.17" y2="105.47"/><line class="cls-3" x1="431.51" y1="38.97" x2="431.51" y2="105.47"/><line class="cls-3" x1="525.43" y1="38.97" x2="525.43" y2="105.47"/><line class="cls-4" x1="74.54" y1="73.8" x2="113.02" y2="71.37"/><line class="cls-4" x1="74.54" y1="68.93" x2="113.02" y2="71.37"/><text class="cls-5" transform="translate(119.96 73.68)">c</text><text class="cls-5" transform="translate(123.57 73.68)">r</text><text class="cls-5" transform="translate(126.8 73.68)">e</text><text class="cls-5" transform="translate(130.41 73.68)">s</text><text class="cls-5" transform="translate(133.53 73.68)">c</text><text class="cls-5" transform="translate(137.33 73.68)">.</text><text class="cls-6" transform="translate(256.86 73.56)">s</text><text class="cls-6" transform="translate(260.68 73.56)">f</text><line class="cls-4" x1="244.8" y1="71.85" x2="255.64" y2="74.41"/><line class="cls-4" x1="244.8" y1="71.85" x2="255.64" y2="69.42"/><text class="cls-7" transform="translate(320.19 73.56)">f</text><text class="cls-7" transform="translate(324.33 73.56)">f</text><path class="cls-8" d="M309.59,54.78c4.51,6.33,51.64,6.33,56.15,0" transform="translate(-44.21 -3.14)"/><path class="cls-9" d="M309.59,54.78c4.51,5.72,51.64,5.72,56.15,0C361.23,61.72,314.1,61.72,309.59,54.78Z" transform="translate(-44.21 -3.14)"/><path class="cls-10" d="M309.59,54.78c4.51,5.72,51.64,5.72,56.15,0C361.23,61.72,314.1,61.72,309.59,54.78Z" transform="translate(-44.21 -3.14)"/><path class="cls-8" d="M309.59,44.06c4.51-6.33,51.64-6.33,56.15,0" transform="translate(-44.21 -3.14)"/><path class="cls-9" d="M309.59,44.06c4.51-6.94,51.64-6.94,56.15,0C361.23,38.33,314.1,38.33,309.59,44.06Z" transform="translate(-44.21 -3.14)"/><path class="cls-10" d="M309.59,44.06c4.51-6.94,51.64-6.94,56.15,0C361.23,38.33,314.1,38.33,309.59,44.06Z" transform="translate(-44.21 -3.14)"/><text class="cls-11" transform="translate(336.75 73.68)">p</text><text class="cls-11" transform="translate(341.35 73.68)">o</text><text class="cls-11" transform="translate(345.55 73.68)">c</text><text class="cls-11" transform="translate(349.16 73.68)">o</text><text class="cls-11" transform="translate(353.36 73.68)"> </text><text class="cls-11" transform="translate(355.96 73.68)">r</text><text class="cls-11" transform="translate(359.56 73.68)">i</text><text class="cls-11" transform="translate(362.1 73.68)">t</text><text class="cls-11" transform="translate(364.84 73.68)">.</text><text class="cls-12" transform="translate(34.95 126.3)">°</text><text class="cls-12" transform="translate(92.07 125.93)">*</text><text class="cls-12" transform="translate(120.69 126.3)">°</text><text class="cls-12" transform="translate(160.76 125.93)">*</text><text class="cls-12" transform="translate(211.55 126.3)">°</text><text class="cls-12" transform="translate(292.05 125.93)">*</text><text class="cls-13" transform="translate(24.45 42.69)">3</text><text class="cls-13" transform="translate(24.24 50.59)">4</text><text class="cls-13" transform="translate(24.45 93.6)">3</text><text class="cls-13" transform="translate(24.24 101.5)">4</text><line class="cls-14" x1="6.82" y1="54.56" x2="525.28" y2="54.56"/><line class="cls-14" x1="6.82" y1="50.66" x2="525.28" y2="50.66"/><line class="cls-14" x1="6.82" y1="46.76" x2="525.28" y2="46.76"/><line class="cls-14" x1="6.82" y1="42.87" x2="525.28" y2="42.87"/><line class="cls-14" x1="6.82" y1="38.97" x2="525.28" y2="38.97"/><text class="cls-12" transform="translate(9.74 50.66)">&amp;</text><text class="cls-12" transform="translate(36.05 31.9)">Ÿ</text><polygon class="cls-9" points="41.77 35.07 58.58 36.04 58.58 34.1 41.77 33.12 41.77 35.07"/><path class="cls-8" d="M84,62.45c7.3,8.53,48.1,7.8,55.53-1.1" transform="translate(-44.21 -3.14)"/><path class="cls-9" d="M84,62.45c7.3,7.92,48.1,7.19,55.53-1.1C132.14,70.85,91.34,71.59,84,62.45Z" transform="translate(-44.21 -3.14)"/><path class="cls-10" d="M84,62.45c7.3,7.92,48.1,7.19,55.53-1.1C132.14,70.85,91.34,71.59,84,62.45Z" transform="translate(-44.21 -3.14)"/><text class="cls-12" transform="translate(121.79 33.85)">Ÿ</text><rect class="cls-15" x="162.23" y="34.1" width="33.61" height="1.95"/><polygon class="cls-9" points="243.09 39.58 247.97 38.97 247.97 37.02 243.09 37.63 243.09 39.58"/><polygon class="cls-9" points="218.37 39.94 247.97 36.04 247.97 34.1 218.37 37.99 218.37 39.94"/><text class="cls-16" transform="translate(339.07 36.04)">Ÿ</text><rect x="414.21" y="60.4" width="4.87" height="1.95"/><rect x="322.38" y="63.33" width="96.7" height="1.95"/><text class="cls-16" transform="translate(439.3 37.26)">.</text><polygon class="cls-17" points="462.44 59.55 467.31 59.43 467.31 57.48 462.44 57.6 462.44 59.55"/><polygon class="cls-17" points="437.72 63.33 467.31 62.35 467.31 60.4 437.72 61.38 437.72 63.33"/><path class="cls-8" d="M204.49,61.23c5.23,5.24,27.52,4.14,32.39-1.58" transform="translate(-44.21 -3.14)"/><path class="cls-9" d="M204.49,61.23c5.23,4.63,27.52,3.53,32.39-1.58C232,66,209.72,67.08,204.49,61.23Z" transform="translate(-44.21 -3.14)"/><path class="cls-10" d="M204.49,61.23c5.23,4.63,27.52,3.53,32.39-1.58C232,66,209.72,67.08,204.49,61.23Z" transform="translate(-44.21 -3.14)"/><path class="cls-18" d="M369.76,40.16c9.86-19.49,85.49-19.49,95.48,0" transform="translate(-44.21 -3.14)"/><path class="cls-17" d="M369.76,40.16c9.86-20.1,85.49-20.1,95.48,0C455.25,21.28,379.62,21.28,369.76,40.16Z" transform="translate(-44.21 -3.14)"/><path class="cls-19" d="M369.76,40.16c9.86-20.1,85.49-20.1,95.48,0C455.25,21.28,379.62,21.28,369.76,40.16Z" transform="translate(-44.21 -3.14)"/><line class="cls-14" x1="6.82" y1="105.47" x2="525.28" y2="105.47"/><line class="cls-14" x1="6.82" y1="101.57" x2="525.28" y2="101.57"/><line class="cls-14" x1="6.82" y1="97.67" x2="525.28" y2="97.67"/><line class="cls-14" x1="6.82" y1="93.78" x2="525.28" y2="93.78"/><line class="cls-14" x1="6.82" y1="89.88" x2="525.28" y2="89.88"/><text class="cls-12" transform="translate(9.74 93.78)">?</text><text class="cls-16" transform="translate(479.49 75.99)">&gt;</text><line class="cls-14" x1="41.77" y1="53.95" x2="41.77" y2="33.24"/><text class="cls-12" transform="translate(36.54 54.56)">œ</text><text class="cls-12" transform="translate(36.54 44.81)">œ</text><line class="cls-14" x1="58.58" y1="55.9" x2="58.58" y2="34.22"/><text class="cls-12" transform="translate(53.34 56.51)">œ</text><text class="cls-12" transform="translate(53.34 46.76)">œ</text><text class="cls-12" transform="translate(48.35 56.51)">#</text><line class="cls-14" x1="75.27" y1="52" x2="75.27" y2="31.17"/><text class="cls-12" transform="translate(70.03 52.61)">œ</text><text class="cls-12" transform="translate(70.03 42.87)">œ</text><text class="cls-12" transform="translate(66.13 42.87)">n</text><line class="cls-14" x1="98.53" y1="53.95" x2="98.53" y2="32.15"/><text class="cls-12" transform="translate(93.29 54.56)">œ</text><text class="cls-12" transform="translate(93.29 44.81)">œ</text><line class="cls-14" x1="127.52" y1="52" x2="127.52" y2="35.07"/><text class="cls-12" transform="translate(122.28 52.61)">œ</text><text class="cls-12" transform="translate(122.28 48.71)">œ</text><text class="cls-20" transform="translate(130.19 52.61)">™</text><text class="cls-20" transform="translate(130.19 48.71)">™</text><line class="cls-14" x1="162.23" y1="53.95" x2="162.23" y2="34.22"/><text class="cls-12" transform="translate(156.99 54.56)">œ</text><text class="cls-12" transform="translate(156.99 50.66)">œ</text><text class="cls-12" transform="translate(152 50.66)">#</text><line class="cls-14" x1="179.03" y1="50.05" x2="179.03" y2="34.22"/><text class="cls-12" transform="translate(173.8 50.66)">œ</text><text class="cls-12" transform="translate(173.8 46.76)">œ</text><text class="cls-12" transform="translate(169.9 50.66)">n</text><line class="cls-14" x1="195.84" y1="52" x2="195.84" y2="34.22"/><text class="cls-12" transform="translate(190.6 52.61)">œ</text><text class="cls-12" transform="translate(190.6 48.71)">œ</text><line class="cls-14" x1="218.37" y1="53.95" x2="218.37" y2="38.12"/><text class="cls-12" transform="translate(213.13 54.56)">œ</text><text class="cls-12" transform="translate(213.13 50.66)">œ</text><text class="cls-12" transform="translate(229.94 46.76)">≈</text><line class="cls-14" x1="247.97" y1="53.95" x2="247.97" y2="34.22"/><text class="cls-12" transform="translate(242.73 54.56)">œ</text><text class="cls-12" transform="translate(242.73 44.81)">œ</text><line class="cls-14" x1="259.29" y1="41.53" x2="259.29" y2="62.35"/><text class="cls-12" transform="translate(259.17 40.92)">˙</text><text class="cls-12" transform="translate(259.17 50.66)">˙</text><line class="cls-21" x1="322.38" y1="41.53" x2="322.38" y2="65.15"/><text class="cls-16" transform="translate(322.26 40.92)">œ</text><text class="cls-16" transform="translate(322.26 50.66)">œ</text><line class="cls-21" x1="339.19" y1="43.47" x2="339.19" y2="65.15"/><text class="cls-16" transform="translate(339.07 42.87)">œ</text><text class="cls-16" transform="translate(339.07 52.61)">œ</text><line class="cls-21" x1="355.87" y1="45.42" x2="355.87" y2="65.15"/><text class="cls-16" transform="translate(355.75 44.81)">œ</text><text class="cls-16" transform="translate(355.75 54.56)">œ</text><text class="cls-16" transform="translate(350.76 44.81)">#</text><line class="cls-21" x1="372.68" y1="43.47" x2="372.68" y2="65.15"/><text class="cls-16" transform="translate(372.56 42.87)">œ</text><text class="cls-16" transform="translate(372.56 52.61)">œ</text><line class="cls-21" x1="389.49" y1="39.58" x2="389.49" y2="65.15"/><text class="cls-16" transform="translate(389.37 38.97)">œ</text><text class="cls-16" transform="translate(389.37 48.71)">œ</text><text class="cls-16" transform="translate(406.05 46.76)">≈</text><line class="cls-21" x1="419.08" y1="41.53" x2="419.08" y2="65.15"/><text class="cls-16" transform="translate(418.96 40.92)">œ</text><text class="cls-16" transform="translate(418.96 50.66)">œ</text><line class="cls-21" x1="437.72" y1="43.47" x2="437.72" y2="63.21"/><text class="cls-16" transform="translate(437.59 42.87)">œ</text><text class="cls-16" transform="translate(437.59 52.61)">œ</text><text class="cls-16" transform="translate(454.28 46.76)">≈</text><line class="cls-21" x1="467.31" y1="41.53" x2="467.31" y2="62.23"/><text class="cls-16" transform="translate(467.19 40.92)">œ</text><text class="cls-16" transform="translate(467.19 50.66)">œ</text><line class="cls-21" x1="485.34" y1="53.95" x2="485.34" y2="32.15"/><text class="cls-16" transform="translate(479.98 54.56)">˙</text><text class="cls-16" transform="translate(479.98 44.81)">˙</text><line class="cls-14" x1="36.66" y1="100.23" x2="36.66" y2="112.29"/><text class="cls-12" transform="translate(36.54 99.62)">˙</text><text class="cls-20" transform="translate(44.58 99.62)">™</text><text class="cls-12" transform="translate(36.54 89.88)">Œ</text><line class="cls-1" x1="68.57" y1="85.98" x2="76.85" y2="85.98"/><line class="cls-14" x1="75.27" y1="95.12" x2="75.27" y2="75.26"/><text class="cls-12" transform="translate(70.03 95.73)">œ</text><text class="cls-12" transform="translate(70.03 91.83)">œ</text><text class="cls-12" transform="translate(70.03 85.98)">œ</text><line class="cls-1" x1="91.83" y1="85.98" x2="100.11" y2="85.98"/><line class="cls-14" x1="98.53" y1="95.12" x2="98.53" y2="75.26"/><text class="cls-12" transform="translate(93.29 95.73)">œ</text><text class="cls-12" transform="translate(93.29 91.83)">œ</text><text class="cls-12" transform="translate(93.29 85.98)">œ</text><line class="cls-14" x1="127.52" y1="106.81" x2="127.52" y2="93.78"/><text class="cls-12" transform="translate(122.28 107.42)">œ</text><line class="cls-1" x1="143.96" y1="85.98" x2="152.24" y2="85.98"/><line class="cls-14" x1="145.54" y1="86.59" x2="145.54" y2="107.42"/><text class="cls-12" transform="translate(145.42 85.98)">œ</text><text class="cls-12" transform="translate(145.42 89.88)">œ</text><text class="cls-12" transform="translate(145.42 93.78)">œ</text><text class="cls-12" transform="translate(173.8 97.67)">Œ</text><line class="cls-14" x1="218.37" y1="104.86" x2="218.37" y2="91.83"/><text class="cls-12" transform="translate(213.13 105.47)">œ</text><line class="cls-1" x1="257.71" y1="85.98" x2="265.99" y2="85.98"/><line class="cls-14" x1="259.29" y1="86.59" x2="259.29" y2="109.37"/><text class="cls-12" transform="translate(259.17 85.98)">œ</text><text class="cls-12" transform="translate(259.17 95.73)">œ</text><line class="cls-1" x1="291.81" y1="85.98" x2="300.09" y2="85.98"/><line class="cls-14" x1="293.39" y1="86.59" x2="293.39" y2="109.37"/><text class="cls-12" transform="translate(293.27 85.98)">œ</text><text class="cls-12" transform="translate(293.27 95.73)">œ</text><line class="cls-21" x1="327.5" y1="104.86" x2="327.5" y2="91.83"/><text class="cls-16" transform="translate(322.26 105.47)">œ</text><line class="cls-21" x1="355.87" y1="88.54" x2="355.87" y2="111.32"/><text class="cls-16" transform="translate(355.75 87.93)">œ</text><text class="cls-16" transform="translate(355.75 91.83)">œ</text><text class="cls-16" transform="translate(355.75 97.67)">œ</text><line class="cls-21" x1="389.49" y1="88.54" x2="389.49" y2="111.32"/><text class="cls-16" transform="translate(389.37 87.93)">œ</text><text class="cls-16" transform="translate(389.37 91.83)">œ</text><text class="cls-16" transform="translate(389.37 97.67)">œ</text><line class="cls-3" x1="436.13" y1="109.37" x2="444.42" y2="109.37"/><line class="cls-3" x1="436.13" y1="113.27" x2="444.42" y2="113.27"/><line class="cls-21" x1="442.83" y1="112.66" x2="442.83" y2="85.98"/><text class="cls-16" transform="translate(437.59 113.27)">œ</text><text class="cls-16" transform="translate(437.59 99.62)">œ</text><line class="cls-3" x1="478.52" y1="85.98" x2="486.92" y2="85.98"/><line class="cls-21" x1="480.1" y1="86.59" x2="480.1" y2="112.29"/><text class="cls-16" transform="translate(479.98 85.98)">˙</text><text class="cls-16" transform="translate(479.98 91.83)">˙</text><text class="cls-16" transform="translate(479.98 99.62)">˙</text><line class="cls-21" x1="316.17" y1="54.56" x2="525.43" y2="54.56"/><line class="cls-21" x1="316.17" y1="50.66" x2="525.43" y2="50.66"/><line class="cls-21" x1="316.17" y1="46.76" x2="525.43" y2="46.76"/><line class="cls-21" x1="316.17" y1="42.87" x2="525.43" y2="42.87"/><line class="cls-21" x1="316.17" y1="38.97" x2="525.43" y2="38.97"/><line class="cls-21" x1="316.17" y1="105.47" x2="525.43" y2="105.47"/><line class="cls-21" x1="316.17" y1="101.57" x2="525.43" y2="101.57"/><line class="cls-21" x1="316.17" y1="97.67" x2="525.43" y2="97.67"/><line class="cls-21" x1="316.17" y1="93.78" x2="525.43" y2="93.78"/><line class="cls-21" x1="316.17" y1="89.88" x2="525.43" y2="89.88"/><line class="cls-22" x1="434.19" y1="2.86" x2="446.36" y2="2.86"/><text class="cls-23" transform="translate(475.63 14.56) scale(2.77 1)">˘</text><text class="cls-24" transform="translate(436.01 26.55)">2</text><text class="cls-24" transform="translate(479.49 26.55)">1</text><text class="cls-24" transform="translate(436.57 21.02)">^</text><text class="cls-24" transform="translate(479.98 21.02)">^</text><rect class="cls-25" x="432.37" y="9.05" width="15.02" height="21.02" rx="7.51"/><rect class="cls-25" x="475.63" y="9.05" width="15.02" height="21.02" rx="7.51"/><text class="cls-24" transform="translate(320.47 26.55)">3</text><text class="cls-24" transform="translate(321.03 21.02)">^</text><rect class="cls-25" x="316.82" y="9.05" width="15.02" height="21.02" rx="7.51"/><text class="cls-24" transform="translate(322.04 135.84)">5</text><text class="cls-24" transform="translate(322.6 130.31)">^</text><rect class="cls-25" x="318.4" y="118.34" width="15.02" height="21.02" rx="7.51"/><text class="cls-24" transform="translate(436.01 135.84)">1</text><text class="cls-24" transform="translate(436.57 130.31)">^</text><rect class="cls-25" x="432.37" y="118.34" width="15.02" height="21.02" rx="7.51"/><path class="cls-26" d="M495.19,22.71a12.63,12.63,0,0,1,9.29-4c2.59,0,5.93,1.27,8.35,2.37" transform="translate(-44.21 -3.14)"/><polygon class="cls-27" points="466.11 19.22 467.94 17.65 468.07 15.24 471.81 19.56 466.11 19.22"/><line class="cls-3" x1="523.71" y1="38.97" x2="523.71" y2="105.47"/><text class="cls-28" transform="translate(32.41 19.56)">m. 28</text></svg>